<svg xmlns="http://www.w3.org/2000/svg" viewBox="0 0 32.612 29.029">
  <defs>
    <style>
      .cls-1 {
        fill: #e673e6;
      }
    </style>
  </defs>
  <g id="Group_23" data-name="Group 23" transform="translate(0 0)">
    <g id="Group_22" data-name="Group 22">
      <path id="Path_47" data-name="Path 47" class="cls-1" d="M938.252,45.553h3.453l4.933,17.8a1.186,1.186,0,0,0,1.176.873h15.1a1.157,1.157,0,0,0,1.1-.721l5.5-12.636a1.215,1.215,0,0,0-.114-1.138,1.193,1.193,0,0,0-.987-.531h-23.3a1.214,1.214,0,1,0,0,2.429h21.44l-4.44,10.246H948.688l-4.933-17.8a1.186,1.186,0,0,0-1.176-.873h-4.364A1.223,1.223,0,0,0,937,44.414,1.17,1.17,0,0,0,938.252,45.553Z" transform="translate(-937 -43.2)"/>
      <path id="Path_48" data-name="Path 48" class="cls-1" d="M962.267,111.633a2.467,2.467,0,1,0-2.467-2.467A2.462,2.462,0,0,0,962.267,111.633Z" transform="translate(-951.148 -82.604)"/>
      <path id="Path_49" data-name="Path 49" class="cls-1" d="M999.36,111.557h.19a2.491,2.491,0,1,0-.342-4.971,2.488,2.488,0,0,0,.152,4.971Z" transform="translate(-974.163 -82.528)"/>
    </g>
  </g>
</svg>
