<svg xmlns="http://www.w3.org/2000/svg" viewBox="0 0 160.307 35">
  <defs>
    <style>
      .cls-1 {
        opacity: 0.3;
      }

      .cls-2 {
        fill: #fff;
      }

      .cls-3, .cls-4 {
        fill: #e673e6;
      }

      .cls-4 {
        opacity: 0.7;
      }
    </style>
  </defs>
  <g id="Group_72" data-name="Group 72" transform="translate(-564.7 212.46)">
    <g id="Group_8" data-name="Group 8" transform="translate(692.493 -185.924)">
      <g id="Group_7" data-name="Group 7">
        <path id="Path_15" data-name="Path 15" class="cls-1" d="M651.714,290.436h-23.3a4.232,4.232,0,0,1-4.218-4.218h0A4.232,4.232,0,0,1,628.418,282h23.3a4.232,4.232,0,0,1,4.218,4.218h0A4.25,4.25,0,0,1,651.714,290.436Z" transform="translate(-624.2 -282)"/>
        <g id="Group_6" data-name="Group 6" transform="translate(5.726 1.983)">
          <path id="Path_16" data-name="Path 16" class="cls-2" d="M645.789,301.3a.659.659,0,0,0-.447-.2.632.632,0,1,0,.642.642A.918.918,0,0,0,645.789,301.3Z" transform="translate(-644.7 -297.748)"/>
          <path id="Path_17" data-name="Path 17" class="cls-2" d="M654.758,292.8a1.327,1.327,0,0,1-.978-.363,1.161,1.161,0,0,1-.363-.922,1.284,1.284,0,0,1,.391-.95,1.35,1.35,0,0,1,1.006-.363,1.3,1.3,0,0,1,.587.112,1.54,1.54,0,0,1,.5.391l.922-.5a2.267,2.267,0,0,0-.866-.754,2.677,2.677,0,0,0-1.173-.251,2.813,2.813,0,0,0-1.285.307,2.2,2.2,0,0,0-1.2,2.011,2.284,2.284,0,0,0,.67,1.62,2.44,2.44,0,0,0,1.816.7,2.394,2.394,0,0,0,2.011-.922l-.866-.587A1.514,1.514,0,0,1,654.758,292.8Z" transform="translate(-650.177 -289.172)"/>
          <path id="Path_18" data-name="Path 18" class="cls-2" d="M675.73,290.345a2.087,2.087,0,0,0-.866-.838,2.449,2.449,0,0,0-1.173-.307,2.152,2.152,0,0,0-1.536.615,2.224,2.224,0,0,0-.754,1.732,2.255,2.255,0,0,0,.67,1.648,2.192,2.192,0,0,0,1.62.67,2.45,2.45,0,0,0,1.173-.307,2.019,2.019,0,0,0,.838-.838,2.45,2.45,0,0,0,.307-1.173A2.075,2.075,0,0,0,675.73,290.345Zm-1.173,2.067a1.214,1.214,0,0,1-1.732,0,1.435,1.435,0,0,1,0-1.844,1.214,1.214,0,0,1,1.732,0,1.291,1.291,0,0,1,.335.922A1.061,1.061,0,0,1,674.556,292.412Z" transform="translate(-663.942 -289.172)"/>
          <path id="Path_19" data-name="Path 19" class="cls-2" d="M697.72,289.882a1.38,1.38,0,0,0-.5-.559,1.629,1.629,0,0,0-.838-.223,1.687,1.687,0,0,0-.838.2,1.84,1.84,0,0,0-.642.587,1.546,1.546,0,0,0-.531-.587,1.384,1.384,0,0,0-.754-.2,1.664,1.664,0,0,0-.754.168,2.016,2.016,0,0,0-.642.475v-.5H691.1v4.413h1.117V291.7a2.553,2.553,0,0,1,.112-.922,1.213,1.213,0,0,1,.335-.475.78.78,0,0,1,.5-.168.686.686,0,0,1,.419.14.8.8,0,0,1,.251.391,3.173,3.173,0,0,1,.084.866v2.151h1.117V291.7a2.554,2.554,0,0,1,.112-.922,1.11,1.11,0,0,1,.335-.447.78.78,0,0,1,.5-.168.632.632,0,0,1,.559.251,1.949,1.949,0,0,1,.2,1.006v2.235h1.117v-2.6A2.67,2.67,0,0,0,697.72,289.882Z" transform="translate(-678.139 -289.1)"/>
        </g>
      </g>
    </g>
    <g id="Group_9" data-name="Group 9" transform="translate(564.7 -212.46)">
      <path id="Path_20" data-name="Path 20" class="cls-3" d="M420.291,190.6a2.775,2.775,0,0,0-2.654,2.793v3.52a2.682,2.682,0,0,1-2.682,2.682h-2.011a2.682,2.682,0,0,1-2.682-2.682V193.28a2.682,2.682,0,0,0-2.682-2.682h0a2.682,2.682,0,0,0-2.682,2.682v18.156a2.682,2.682,0,0,0,2.682,2.682h0a2.682,2.682,0,0,0,2.682-2.682V207.47a2.682,2.682,0,0,1,2.682-2.682h2.011a2.682,2.682,0,0,1,2.682,2.682v3.883a2.726,2.726,0,0,0,2.626,2.765A2.677,2.677,0,0,0,423,211.437V193.28A2.654,2.654,0,0,0,420.291,190.6Z" transform="translate(-338.364 -189.593)"/>
      <path id="Path_21" data-name="Path 21" class="cls-3" d="M571.107,213.475h-3.128a.882.882,0,0,0-.894.894v.81A5.992,5.992,0,0,0,562.168,213a8.538,8.538,0,0,0,0,17.067,6.03,6.03,0,0,0,4.916-2.179,35.1,35.1,0,0,1,.223,3.883c0,2.542-.95,3.128-1.229,3.436a3.893,3.893,0,0,1-2.905,1.034,4.309,4.309,0,0,1-2.877-.866,2.369,2.369,0,0,0-2.709-.279l-.14.084a2.366,2.366,0,0,0-.168,3.994,10.177,10.177,0,0,0,5.7,1.564,10.773,10.773,0,0,0,4.916-1.117h0a7.006,7.006,0,0,0,2.793-2.486,8.771,8.771,0,0,0,.95-2.207,11.225,11.225,0,0,0,.307-2.486V214.4A.83.83,0,0,0,571.107,213.475Zm-8.1,11.955a3.914,3.914,0,1,1,4.078-3.911A3.83,3.83,0,0,1,563.006,225.43Z" transform="translate(-445.744 -205.737)"/>
      <path id="Path_22" data-name="Path 22" class="cls-3" d="M643.779,213.547H640.51a.9.9,0,0,0-.894.894v.7a6.3,6.3,0,0,0-5-2.039c-4.413,0-8.017,3.855-8.017,8.883s3.631,8.883,8.017,8.883a6.31,6.31,0,0,0,5-2.039v.7a.9.9,0,0,0,.894.894h3.268a.882.882,0,0,0,.894-.894V214.5A.931.931,0,0,0,643.779,213.547Zm-8.156,12.486a4.108,4.108,0,1,1,3.994-4.106A3.842,3.842,0,0,1,635.622,226.033Z" transform="translate(-498.136 -205.809)"/>
      <path id="Path_23" data-name="Path 23" class="cls-3" d="M713.757,213.6a5.478,5.478,0,0,0-3.156,1.425.668.668,0,0,1-1.145-.475h0a.68.68,0,0,0-.67-.67H705.07a.68.68,0,0,0-.67.67V230.02a.68.68,0,0,0,.67.67h3.715a.68.68,0,0,0,.67-.67v-6.927c0-2.961,2.346-3.966,4.357-3.883a.669.669,0,0,0,.7-.67v-4.274A.716.716,0,0,0,713.757,213.6Z" transform="translate(-554.204 -206.165)"/>
      <path id="Path_24" data-name="Path 24" class="cls-3" d="M486.168,208.1a12.45,12.45,0,0,0-1.76.14,10.241,10.241,0,1,0,1.76-.14Zm6.676,10.726a9.272,9.272,0,0,1-1.816,4.134c-.168.447-.922.335-.922.335l.559,2.151c-.112.307-.615.084-.615.084l-.838-2.263s-1.62,0-2.709-.028c-1.061-.028-4.022-.028-4.022-.028l-.838,2.011c-.447.279-.642-.084-.642-.084l.615-2.011-.7-.084a1.4,1.4,0,0,1-.223-.2,8.105,8.105,0,0,1-1.48-3.128,11.013,11.013,0,0,1-.223-3.687c.223-.391,1.844-.922,1.844-.922s.168-1.285.335-2.011.056-1.089,1.592-1.173a7.854,7.854,0,0,1,.838-.028c1.508-.028,3.408.028,3.408.028a13.429,13.429,0,0,1,3.408.279c.587.335.559,2.374.559,2.821.028.447.866.531,1.4.726C492.955,215.977,493.179,216.34,492.844,218.826Zm-10.168.67-.335,1.257c-.084.335.2.642.615.642h6.285a.565.565,0,0,0,.615-.642l-.335-1.257a.592.592,0,0,0-.615-.419h-5.587A.6.6,0,0,0,482.676,219.5Z" transform="translate(-389.603 -202.206)"/>
      <path id="Path_25" data-name="Path 25" class="cls-4" d="M278.479,213.547h-3.268a.9.9,0,0,0-.894.894v.7a6.3,6.3,0,0,0-5-2.039c-4.413,0-8.017,3.855-8.017,8.883s3.631,8.883,8.017,8.883a6.31,6.31,0,0,0,5-2.039v.7a.9.9,0,0,0,.894.894h3.268a.882.882,0,0,0,.894-.894V214.5A.9.9,0,0,0,278.479,213.547Zm-8.128,12.486a4.108,4.108,0,1,1,3.994-4.106A3.842,3.842,0,0,1,270.35,226.033Z" transform="translate(-234.875 -205.809)"/>
      <path id="Path_26" data-name="Path 26" class="cls-4" d="M186.868,190.6h-.2a3.318,3.318,0,0,0-2.821,1.592l-4.944,8.1a.548.548,0,0,1-.922,0l-4.944-8.1a3.354,3.354,0,0,0-2.821-1.592h-.2a3.332,3.332,0,0,0-3.324,3.324v17.514a2.682,2.682,0,0,0,2.682,2.682h0a2.682,2.682,0,0,0,2.682-2.682V202.36a.544.544,0,0,1,1.006-.279l4.916,8.073a.5.5,0,0,0,.447.251.529.529,0,0,0,.447-.251l4.916-8.073a.544.544,0,0,1,1.006.279v9.078a2.682,2.682,0,0,0,2.682,2.682h0a2.682,2.682,0,0,0,2.682-2.682V193.924A3.291,3.291,0,0,0,186.868,190.6Z" transform="translate(-166.7 -189.594)"/>
      <path id="Path_27" data-name="Path 27" class="cls-4" d="M342.014,187a2.5,2.5,0,0,0-2.514,2.514v19.5a2.514,2.514,0,1,0,5.028,0v-19.5A2.486,2.486,0,0,0,342.014,187Z" transform="translate(-291.232 -187)"/>
      <path id="Path_28" data-name="Path 28" class="cls-4" d="M373.314,187a2.5,2.5,0,0,0-2.514,2.514v19.5a2.514,2.514,0,1,0,5.028,0v-19.5A2.5,2.5,0,0,0,373.314,187Z" transform="translate(-313.789 -187)"/>
    </g>
  </g>
</svg>
